<svg xmlns="http://www.w3.org/2000/svg" version="1.1" xmlns:xlink="http://www.w3.org/1999/xlink" xmlns:svgjs="http://svgjs.dev/svgjs" width="1000" height="1000" viewBox="0 0 1000 1000"><rect width="1000" height="1000" fill="#ffffff"></rect><g transform="matrix(0.7,0,0,0.7,149.5757870205225,407.686976256752)"><svg viewBox="0 0 396 105" data-background-color="#ffffff" preserveAspectRatio="xMidYMid meet" height="265" width="1000" xmlns="http://www.w3.org/2000/svg" xmlns:xlink="http://www.w3.org/1999/xlink"><g id="tight-bounds" transform="matrix(1,0,0,1,0.23998344678409467,-0.24734505099172566)"><svg viewBox="0 0 395.52 105.49469010198348" height="105.49469010198348" width="395.52"><g><svg viewBox="0 0 395.52 105.49469010198348" height="105.49469010198348" width="395.52"><g><svg viewBox="0 0 395.52 105.49469010198348" height="105.49469010198348" width="395.52"><g id="textblocktransform"><svg viewBox="0 0 395.52 105.49469010198348" height="105.49469010198348" width="395.52" id="textblock"><g><svg viewBox="0 0 395.52 69.65655857828686" height="69.65655857828686" width="395.52"><g transform="matrix(1,0,0,1,0,0)"><svg width="395.52" viewBox="-3.8299999237060547 -37.380001068115234 289.8499755859375 51.05000305175781" height="69.65655857828686" data-palette-color="#0718c4"><path d="M10.99-34.18L10.99-2.17Q10.99 4.15 8.45 8.06L8.45 8.06Q6.88 10.4 5.8 11.32 4.71 12.23 3.96 12.7L3.96 12.7Q2.32 13.67 1.2 13.67L1.2 13.67Q-1.86 13.67-3.83 12.13L-3.83 12.13-2.29 7.32-0.71 7.32Q-0.71 8.72 0.59 9.42L0.59 9.42Q1.12 9.69 1.97 9.69 2.81 9.69 3.61 9.29 4.42 8.89 5.03 8.06L5.03 8.06Q6.42 6.18 6.42 2.88L6.42 2.88 6.42-34.18 2.71-34.74 2.71-36.82 14.67-36.82 14.67-34.74 10.99-34.18ZM35.91 0.56L35.91 0.56Q21.29 0.56 21.29-13.21L21.29-13.21 21.29-34.18 17.5-34.74 17.5-36.82 29.71-36.82 29.71-34.74 25.8-34.18 25.8-13.94Q25.8-4.93 31.54-2.98L31.54-2.98Q33.37-2.37 35.97-2.37 38.57-2.37 40.65-3.03 42.72-3.69 44.09-5.1L44.09-5.1Q46.8-7.91 46.8-13.94L46.8-13.94 46.8-34.18 43.06-34.74 43.06-36.82 53.29-36.82 53.29-34.74 49.61-34.18 49.61-13.21Q49.61-6.62 46.07-3.03 42.53 0.56 35.91 0.56ZM68.57-2.34L68.57-2.34Q70.38-2.34 71.86-2.7 73.33-3.05 74.41-3.81L74.41-3.81Q76.7-5.4 76.7-8.45L76.7-8.45Q76.7-11.04 75.02-12.7L75.02-12.7Q73.24-14.4 69.25-16.15 65.25-17.9 63.17-19.27 61.08-20.65 59.88-22.07L59.88-22.07Q57.71-24.56 57.71-28.1L57.71-28.1Q57.71-32.2 61.25-34.86L61.25-34.86Q64.55-37.38 69.23-37.38L69.23-37.38Q72.92-37.38 76.61-36.04L76.61-36.04Q78.14-35.42 79.39-34.69L79.39-34.69 78.54-28.17 76.48-28.17Q76.48-31.54 74.65-33.07 72.82-34.59 69.36-34.59L69.36-34.59Q64.57-34.59 62.81-31.47L62.81-31.47Q62.25-30.44 62.25-29.17 62.25-27.91 62.62-26.89 62.98-25.88 64.03-24.9L64.03-24.9Q66.08-22.92 71.75-20.56L71.75-20.56Q79.66-17.19 80.98-12.6L80.98-12.6Q81.37-11.16 81.37-9.53 81.37-7.91 80.82-6.46 80.27-5 79.32-3.87 78.36-2.73 77.11-1.9 75.85-1.07 74.43-0.54L74.43-0.54Q68.16 1.9 61.25-0.93L61.25-0.93Q58.74-1.98 56.81-3.49L56.81-3.49 57.83-10.5 59.91-10.5Q59.91-5.59 63.01-3.66L63.01-3.66Q65.13-2.34 68.57-2.34ZM86.69-36.82L117.79-36.82 118.38-28.98 116.18-28.98 114.93-33.86 104.51-33.86 104.51-2.64 109.88-2.08 109.88 0 94.62 0 94.62-2.08 99.94-2.64 99.94-33.86 89.57-33.86 88.25-28.98 86.1-28.98 86.69-36.82ZM128.77-34.18L139.47-5.86 145.74-26.27 145.5-23.02 141.25-34.18 138.2-34.74 138.2-36.82 149.62-36.82 149.65-34.74 146.08-34.18 155.58-6.03Q156.87-9.5 158-13.04L158-13.04 162.39-27.2Q163.52-30.71 164.81-34.18L164.81-34.18 161.29-34.74 161.29-36.82 170.67-36.82 170.67-34.74 167.96-34.28 156.14 0 153.51 0 145.79-22.17 146.99-21.9 140.03 0 137.39 0 123.94-34.18 121.16-34.74 121.16-36.82 131.85-36.82 132.02-34.74 128.77-34.18ZM198.72-31.23L198.72-31.23Q199.38-29.54 199.38-27.39 199.38-25.24 198.71-23.49 198.03-21.73 196.76-20.46L196.76-20.46Q194.35-18.04 189.66-17.07L189.66-17.07 190.1-17.87 199.74-3.22 201.45-2.47 204.89-2.08 204.89 0 196.52 0 185.53-17.55 187.59-16.67 181.04-16.67 181.04-2.64 184.7-2.08 184.7 0 172.74 0 172.74-2.08 176.53-2.64 176.53-34.18 172.74-34.74 172.74-36.82 184.78-36.82Q196.47-36.82 198.72-31.23ZM185.02-33.86L181.04-33.86 181.04-19.31 184.66-19.31Q192.57-19.31 194.23-23.93L194.23-23.93Q194.74-25.32 194.74-26.94 194.74-28.56 194.27-29.86 193.81-31.15 192.71-32.03L192.71-32.03Q190.44-33.86 185.02-33.86L185.02-33.86ZM206.67-34.74L206.67-36.82 218.64-36.82 218.64-34.74 214.95-34.18 214.95-2.64 218.64-2.08 218.64 0 206.67 0 206.67-2.08 210.43-2.64 210.43-34.18 206.67-34.74ZM224.2-36.82L255.3-36.82 255.89-28.98 253.69-28.98 252.45-33.86 242.02-33.86 242.02-2.64 247.39-2.08 247.39 0 232.14 0 232.14-2.08 237.46-2.64 237.46-33.86 227.08-33.86 225.76-28.98 223.62-28.98 224.2-36.82ZM278.52-15.09L277.79-17.65 268.8-17.65 268.8-2.93 282.4-2.93 284.16-7.25 286.02-7.25 285.21 0 260.5 0 260.5-2.08 264.21-2.64 264.21-34.18 260.5-34.74 260.5-36.82 284.14-36.82 284.7-29.57 282.55-29.57 281.23-33.86 268.8-33.86 268.8-20.58 277.79-20.58 278.52-23.17 280.25-23.17 280.25-15.09 278.52-15.09Z" opacity="1" transform="matrix(1,0,0,1,0,0)" fill="#000000" class="wordmark-text-0" data-fill-palette-color="primary" id="text-0"></path></svg></g></svg></g><g transform="matrix(1,0,0,1,75.54432,86.10080030121452)"><svg viewBox="0 0 244.43135999999998 19.39388980076896" height="19.39388980076896" width="244.43135999999998"><g transform="matrix(1,0,0,1,0,0)"><svg width="244.43135999999998" viewBox="0.3500000238418579 -36.83000183105469 572.1400146484375 45.410003662109375" height="19.39388980076896" data-palette-color="#77d4fc"><path d="M11.53 0L0.35-35.83 4.38-35.83Q5.03-35.83 5.45-35.5 5.88-35.18 6.03-34.68L6.03-34.68 13.43-9.78Q13.63-9.1 13.79-8.33 13.95-7.55 14.1-6.7L14.1-6.7Q14.28-7.55 14.45-8.34 14.63-9.13 14.85-9.78L14.85-9.78 23.28-34.68Q23.43-35.1 23.86-35.46 24.3-35.83 24.93-35.83L24.93-35.83 26.33-35.83Q26.98-35.83 27.39-35.5 27.8-35.18 27.98-34.68L27.98-34.68 36.35-9.78Q36.8-8.47 37.15-6.8L37.15-6.8Q37.3-7.63 37.43-8.38 37.55-9.13 37.75-9.78L37.75-9.78 45.18-34.68Q45.3-35.13 45.74-35.48 46.18-35.83 46.8-35.83L46.8-35.83 50.58-35.83 39.4 0 35.05 0 25.98-27.33Q25.7-28.1 25.48-29.13L25.48-29.13Q25.35-28.63 25.24-28.16 25.13-27.7 25-27.33L25-27.33 15.88 0 11.53 0ZM59.05 0L54.6 0 54.6-36.83 59.05-36.83 59.05-21.93Q60.67-23.65 62.65-24.69 64.62-25.73 67.2-25.73L67.2-25.73Q69.27-25.73 70.86-25.04 72.45-24.35 73.51-23.09 74.57-21.83 75.12-20.05 75.67-18.28 75.67-16.13L75.67-16.13 75.67 0 71.22 0 71.22-16.13Q71.22-19 69.91-20.59 68.6-22.18 65.9-22.18L65.9-22.18Q63.92-22.18 62.21-21.23 60.5-20.28 59.05-18.65L59.05-18.65 59.05 0ZM92.42-25.73L92.42-25.73Q94.7-25.73 96.62-24.96 98.55-24.2 99.95-22.76 101.34-21.33 102.13-19.21 102.92-17.1 102.92-14.4L102.92-14.4Q102.92-13.35 102.7-13 102.47-12.65 101.84-12.65L101.84-12.65 85-12.65Q85.05-10.25 85.65-8.47 86.25-6.7 87.3-5.51 88.34-4.33 89.8-3.74 91.25-3.15 93.05-3.15L93.05-3.15Q94.72-3.15 95.93-3.54 97.15-3.93 98.02-4.38 98.9-4.83 99.48-5.21 100.07-5.6 100.5-5.6L100.5-5.6Q101.05-5.6 101.34-5.18L101.34-5.18 102.59-3.55Q101.77-2.55 100.62-1.81 99.47-1.07 98.16-0.6 96.84-0.13 95.45 0.11 94.05 0.35 92.67 0.35L92.67 0.35Q90.05 0.35 87.83-0.54 85.62-1.43 84.01-3.14 82.4-4.85 81.5-7.38 80.59-9.9 80.59-13.18L80.59-13.18Q80.59-15.83 81.41-18.13 82.22-20.43 83.75-22.11 85.27-23.8 87.47-24.76 89.67-25.73 92.42-25.73ZM92.52-22.45L92.52-22.45Q89.3-22.45 87.45-20.59 85.59-18.73 85.15-15.43L85.15-15.43 98.92-15.43Q98.92-16.98 98.5-18.26 98.07-19.55 97.25-20.49 96.42-21.43 95.23-21.94 94.05-22.45 92.52-22.45ZM113.04 0L108.59 0 108.59-25.33 111.14-25.33Q111.87-25.33 112.14-25.05 112.42-24.78 112.52-24.1L112.52-24.1 112.82-20.15Q114.12-22.8 116.03-24.29 117.94-25.78 120.52-25.78L120.52-25.78Q121.57-25.78 122.42-25.54 123.27-25.3 123.99-24.88L123.99-24.88 123.42-21.55Q123.24-20.93 122.64-20.93L122.64-20.93Q122.29-20.93 121.57-21.16 120.84-21.4 119.54-21.4L119.54-21.4Q117.22-21.4 115.66-20.05 114.09-18.7 113.04-16.13L113.04-16.13 113.04 0ZM138.77-25.73L138.77-25.73Q141.04-25.73 142.97-24.96 144.89-24.2 146.29-22.76 147.69-21.33 148.48-19.21 149.27-17.1 149.27-14.4L149.27-14.4Q149.27-13.35 149.04-13 148.82-12.65 148.19-12.65L148.19-12.65 131.34-12.65Q131.39-10.25 131.99-8.47 132.59-6.7 133.64-5.51 134.69-4.33 136.14-3.74 137.59-3.15 139.39-3.15L139.39-3.15Q141.07-3.15 142.28-3.54 143.49-3.93 144.37-4.38 145.24-4.83 145.83-5.21 146.42-5.6 146.84-5.6L146.84-5.6Q147.39-5.6 147.69-5.18L147.69-5.18 148.94-3.55Q148.12-2.55 146.97-1.81 145.82-1.07 144.5-0.6 143.19-0.13 141.79 0.11 140.39 0.35 139.02 0.35L139.02 0.35Q136.39 0.35 134.18-0.54 131.97-1.43 130.35-3.14 128.74-4.85 127.84-7.38 126.94-9.9 126.94-13.18L126.94-13.18Q126.94-15.83 127.75-18.13 128.57-20.43 130.09-22.11 131.62-23.8 133.82-24.76 136.02-25.73 138.77-25.73ZM138.87-22.45L138.87-22.45Q135.64-22.45 133.79-20.59 131.94-18.73 131.49-15.43L131.49-15.43 145.27-15.43Q145.27-16.98 144.84-18.26 144.42-19.55 143.59-20.49 142.77-21.43 141.58-21.94 140.39-22.45 138.87-22.45ZM172.46 0L161.29-35.83 165.31-35.83Q165.96-35.83 166.39-35.5 166.81-35.18 166.96-34.68L166.96-34.68 174.36-9.78Q174.56-9.1 174.72-8.33 174.89-7.55 175.04-6.7L175.04-6.7Q175.21-7.55 175.39-8.34 175.56-9.13 175.79-9.78L175.79-9.78 184.21-34.68Q184.36-35.1 184.8-35.46 185.24-35.83 185.86-35.83L185.86-35.83 187.26-35.83Q187.91-35.83 188.32-35.5 188.74-35.18 188.91-34.68L188.91-34.68 197.29-9.78Q197.74-8.47 198.09-6.8L198.09-6.8Q198.24-7.63 198.36-8.38 198.49-9.13 198.69-9.78L198.69-9.78 206.11-34.68Q206.24-35.13 206.67-35.48 207.11-35.83 207.74-35.83L207.74-35.83 211.51-35.83 200.34 0 195.99 0 186.91-27.33Q186.64-28.1 186.41-29.13L186.41-29.13Q186.29-28.63 186.17-28.16 186.06-27.7 185.94-27.33L185.94-27.33 176.81 0 172.46 0ZM224.98-25.73L224.98-25.73Q227.76-25.73 230-24.8 232.23-23.88 233.8-22.18 235.36-20.48 236.2-18.06 237.03-15.65 237.03-12.68L237.03-12.68Q237.03-9.68 236.2-7.28 235.36-4.88 233.8-3.18 232.23-1.48 230-0.56 227.76 0.35 224.98 0.35L224.98 0.35Q222.21 0.35 219.97-0.56 217.73-1.48 216.16-3.18 214.58-4.88 213.73-7.28 212.88-9.68 212.88-12.68L212.88-12.68Q212.88-15.65 213.73-18.06 214.58-20.48 216.16-22.18 217.73-23.88 219.97-24.8 222.21-25.73 224.98-25.73ZM224.98-3.13L224.98-3.13Q228.73-3.13 230.58-5.64 232.43-8.15 232.43-12.65L232.43-12.65Q232.43-17.18 230.58-19.7 228.73-22.23 224.98-22.23L224.98-22.23Q223.08-22.23 221.68-21.58 220.28-20.93 219.35-19.7 218.41-18.48 217.95-16.69 217.48-14.9 217.48-12.65L217.48-12.65Q217.48-10.4 217.95-8.63 218.41-6.85 219.35-5.64 220.28-4.42 221.68-3.78 223.08-3.13 224.98-3.13ZM246.98 0L242.53 0 242.53-25.33 245.08-25.33Q245.81-25.33 246.08-25.05 246.36-24.78 246.46-24.1L246.46-24.1 246.76-20.15Q248.06-22.8 249.97-24.29 251.88-25.78 254.46-25.78L254.46-25.78Q255.51-25.78 256.36-25.54 257.21-25.3 257.93-24.88L257.93-24.88 257.36-21.55Q257.18-20.93 256.58-20.93L256.58-20.93Q256.23-20.93 255.51-21.16 254.78-21.4 253.48-21.4L253.48-21.4Q251.16-21.4 249.59-20.05 248.03-18.7 246.98-16.13L246.98-16.13 246.98 0ZM283.15 0L280.5 0Q279.55 0 279.3-0.93L279.3-0.93 278.9-4Q277.28-2.02 275.19-0.84 273.1 0.35 270.4 0.35L270.4 0.35Q268.23 0.35 266.45-0.49 264.68-1.33 263.43-2.95 262.18-4.58 261.5-7 260.83-9.43 260.83-12.58L260.83-12.58Q260.83-15.38 261.58-17.79 262.33-20.2 263.74-21.98 265.15-23.75 267.18-24.76 269.2-25.78 271.78-25.78L271.78-25.78Q274.1-25.78 275.75-24.99 277.4-24.2 278.7-22.78L278.7-22.78 278.7-36.83 283.15-36.83 283.15 0ZM271.88-3.25L271.88-3.25Q274.05-3.25 275.69-4.25 277.33-5.25 278.7-7.08L278.7-7.08 278.7-19.33Q277.48-20.98 276.02-21.64 274.55-22.3 272.78-22.3L272.78-22.3Q269.23-22.3 267.33-19.78 265.43-17.25 265.43-12.58L265.43-12.58Q265.43-10.1 265.85-8.34 266.28-6.58 267.1-5.44 267.93-4.3 269.13-3.78 270.33-3.25 271.88-3.25ZM306.13-22.78L305.13-21.15Q304.83-20.6 304.2-20.6L304.2-20.6Q303.83-20.6 303.35-20.88 302.88-21.15 302.19-21.49 301.5-21.83 300.55-22.11 299.6-22.4 298.3-22.4L298.3-22.4Q297.18-22.4 296.28-22.11 295.38-21.83 294.74-21.33 294.1-20.83 293.76-20.16 293.43-19.5 293.43-18.73L293.43-18.73Q293.43-17.75 293.99-17.1 294.55-16.45 295.48-15.98 296.4-15.5 297.58-15.14 298.75-14.78 299.99-14.36 301.23-13.95 302.4-13.45 303.58-12.95 304.5-12.2 305.43-11.45 305.99-10.36 306.55-9.28 306.55-7.75L306.55-7.75Q306.55-6 305.93-4.51 305.3-3.03 304.08-1.94 302.85-0.85 301.08-0.23 299.3 0.4 296.98 0.4L296.98 0.4Q294.33 0.4 292.18-0.46 290.03-1.33 288.53-2.68L288.53-2.68 289.58-4.38Q289.78-4.7 290.05-4.88 290.33-5.05 290.78-5.05L290.78-5.05Q291.23-5.05 291.73-4.7 292.23-4.35 292.94-3.93 293.65-3.5 294.66-3.15 295.68-2.8 297.2-2.8L297.2-2.8Q298.5-2.8 299.48-3.14 300.45-3.48 301.1-4.05 301.75-4.63 302.06-5.38 302.38-6.13 302.38-6.98L302.38-6.98Q302.38-8.03 301.81-8.71 301.25-9.4 300.33-9.89 299.4-10.38 298.21-10.74 297.03-11.1 295.79-11.5 294.55-11.9 293.36-12.41 292.18-12.93 291.25-13.7 290.33-14.48 289.76-15.61 289.2-16.75 289.2-18.38L289.2-18.38Q289.2-19.83 289.8-21.16 290.4-22.5 291.55-23.51 292.7-24.53 294.38-25.13 296.05-25.73 298.2-25.73L298.2-25.73Q300.7-25.73 302.69-24.94 304.68-24.15 306.13-22.78L306.13-22.78ZM322.67-35.83L344.75-35.83 344.75-31.88 327.55-31.88 327.55-19.35 342.25-19.35 342.25-15.4 327.55-15.4 327.55 0 322.67 0 322.67-35.83ZM350.77-36.83L355.22-36.83 355.22 0 350.77 0 350.77-36.83ZM373.31-25.73L373.31-25.73Q376.09-25.73 378.33-24.8 380.56-23.88 382.13-22.18 383.69-20.48 384.53-18.06 385.37-15.65 385.37-12.68L385.37-12.68Q385.37-9.68 384.53-7.28 383.69-4.88 382.13-3.18 380.56-1.48 378.33-0.56 376.09 0.35 373.31 0.35L373.31 0.35Q370.54 0.35 368.3-0.56 366.06-1.48 364.49-3.18 362.92-4.88 362.06-7.28 361.22-9.68 361.22-12.68L361.22-12.68Q361.22-15.65 362.06-18.06 362.92-20.48 364.49-22.18 366.06-23.88 368.3-24.8 370.54-25.73 373.31-25.73ZM373.31-3.13L373.31-3.13Q377.06-3.13 378.92-5.64 380.77-8.15 380.77-12.65L380.77-12.65Q380.77-17.18 378.92-19.7 377.06-22.23 373.31-22.23L373.31-22.23Q371.42-22.23 370.02-21.58 368.62-20.93 367.68-19.7 366.74-18.48 366.28-16.69 365.81-14.9 365.81-12.65L365.81-12.65Q365.81-10.4 366.28-8.63 366.74-6.85 367.68-5.64 368.62-4.42 370.02-3.78 371.42-3.13 373.31-3.13ZM395.76 0L387.56-25.33 391.06-25.33Q391.61-25.33 391.96-25.05 392.31-24.78 392.44-24.4L392.44-24.4 397.29-8.1Q397.49-7.2 397.66-6.36 397.84-5.53 397.96-4.67L397.96-4.67Q398.16-5.53 398.41-6.36 398.66-7.2 398.94-8.1L398.94-8.1 404.29-24.5Q404.41-24.88 404.73-25.13 405.04-25.38 405.51-25.38L405.51-25.38 407.44-25.38Q407.94-25.38 408.26-25.13 408.59-24.88 408.71-24.5L408.71-24.5 413.94-8.1Q414.21-7.23 414.43-6.38 414.64-5.53 414.84-4.7L414.84-4.7Q414.96-5.53 415.16-6.43 415.36-7.33 415.59-8.1L415.59-8.1 420.54-24.4Q420.66-24.8 421.01-25.06 421.36-25.33 421.84-25.33L421.84-25.33 425.19-25.33 416.99 0 413.46 0Q412.81 0 412.56-0.85L412.56-0.85 406.96-18.03Q406.76-18.6 406.64-19.19 406.51-19.78 406.39-20.35L406.39-20.35Q406.26-19.78 406.14-19.18 406.01-18.57 405.81-18L405.81-18 400.14-0.85Q399.86 0 399.11 0L399.11 0 395.76 0ZM439.51-35.83L461.58-35.83 461.58-31.88 444.38-31.88 444.38-19.35 459.08-19.35 459.08-15.4 444.38-15.4 444.38 0 439.51 0 439.51-35.83ZM470.06 0L465.61 0 465.61-25.33 468.16-25.33Q468.88-25.33 469.16-25.05 469.43-24.78 469.53-24.1L469.53-24.1 469.83-20.15Q471.13-22.8 473.04-24.29 474.96-25.78 477.53-25.78L477.53-25.78Q478.58-25.78 479.43-25.54 480.28-25.3 481.01-24.88L481.01-24.88 480.43-21.55Q480.26-20.93 479.66-20.93L479.66-20.93Q479.31-20.93 478.58-21.16 477.86-21.4 476.56-21.4L476.56-21.4Q474.23-21.4 472.67-20.05 471.11-18.7 470.06-16.13L470.06-16.13 470.06 0ZM495.78-25.73L495.78-25.73Q498.05-25.73 499.98-24.96 501.9-24.2 503.3-22.76 504.7-21.33 505.49-19.21 506.28-17.1 506.28-14.4L506.28-14.4Q506.28-13.35 506.05-13 505.83-12.65 505.2-12.65L505.2-12.65 488.35-12.65Q488.4-10.25 489-8.47 489.6-6.7 490.65-5.51 491.7-4.33 493.15-3.74 494.6-3.15 496.4-3.15L496.4-3.15Q498.08-3.15 499.29-3.54 500.5-3.93 501.38-4.38 502.25-4.83 502.84-5.21 503.43-5.6 503.85-5.6L503.85-5.6Q504.4-5.6 504.7-5.18L504.7-5.18 505.95-3.55Q505.13-2.55 503.98-1.81 502.83-1.07 501.52-0.6 500.2-0.13 498.8 0.11 497.4 0.35 496.03 0.35L496.03 0.35Q493.4 0.35 491.19-0.54 488.98-1.43 487.37-3.14 485.75-4.85 484.85-7.38 483.95-9.9 483.95-13.18L483.95-13.18Q483.95-15.83 484.77-18.13 485.58-20.43 487.1-22.11 488.63-23.8 490.83-24.76 493.03-25.73 495.78-25.73ZM495.88-22.45L495.88-22.45Q492.65-22.45 490.8-20.59 488.95-18.73 488.5-15.43L488.5-15.43 502.28-15.43Q502.28-16.98 501.85-18.26 501.43-19.55 500.6-20.49 499.78-21.43 498.59-21.94 497.4-22.45 495.88-22.45ZM521.98-25.73L521.98-25.73Q524.25-25.73 526.17-24.96 528.1-24.2 529.5-22.76 530.9-21.33 531.69-19.21 532.48-17.1 532.48-14.4L532.48-14.4Q532.48-13.35 532.25-13 532.02-12.65 531.4-12.65L531.4-12.65 514.55-12.65Q514.6-10.25 515.2-8.47 515.8-6.7 516.85-5.51 517.9-4.33 519.35-3.74 520.8-3.15 522.6-3.15L522.6-3.15Q524.27-3.15 525.49-3.54 526.7-3.93 527.58-4.38 528.45-4.83 529.04-5.21 529.63-5.6 530.05-5.6L530.05-5.6Q530.6-5.6 530.9-5.18L530.9-5.18 532.15-3.55Q531.33-2.55 530.17-1.81 529.02-1.07 527.71-0.6 526.4-0.13 525 0.11 523.6 0.35 522.23 0.35L522.23 0.35Q519.6 0.35 517.39-0.54 515.17-1.43 513.56-3.14 511.95-4.85 511.05-7.38 510.15-9.9 510.15-13.18L510.15-13.18Q510.15-15.83 510.96-18.13 511.78-20.43 513.3-22.11 514.83-23.8 517.02-24.76 519.23-25.73 521.98-25.73ZM522.08-22.45L522.08-22.45Q518.85-22.45 517-20.59 515.15-18.73 514.7-15.43L514.7-15.43 528.48-15.43Q528.48-16.98 528.05-18.26 527.63-19.55 526.8-20.49 525.98-21.43 524.79-21.94 523.6-22.45 522.08-22.45ZM538.65-36.83L543.1-36.83 543.1 0 538.65 0 538.65-36.83ZM572.49-25.33L558.37 7.48Q558.14 7.98 557.81 8.28 557.47 8.58 556.77 8.58L556.77 8.58 553.47 8.58 558.09-1.48 547.64-25.33 551.49-25.33Q552.07-25.33 552.39-25.04 552.72-24.75 552.87-24.4L552.87-24.4 559.64-8.45Q559.87-7.9 560.03-7.35 560.19-6.8 560.32-6.23L560.32-6.23Q560.49-6.8 560.67-7.35 560.84-7.9 561.07-8.47L561.07-8.47 567.64-24.4Q567.79-24.8 568.16-25.06 568.52-25.33 568.94-25.33L568.94-25.33 572.49-25.33Z" opacity="1" transform="matrix(1,0,0,1,0,0)" fill="#000000" class="slogan-text-1" data-fill-palette-color="secondary" id="text-1"></path></svg></g></svg></g></svg></g></svg></g><g></g></svg></g><defs></defs></svg><rect width="395.52" height="105.49469010198348" fill="none" stroke="none" visibility="hidden"></rect></g></svg></g></svg>